<svg width="50" height="42" viewBox="0 0 50 42" fill="none" xmlns="http://www.w3.org/2000/svg">
<path d="M26.5387 3.57518L18.298 36.6938C17.6568 39.6967 15.004 41.8428 11.9336 41.8428H2.95861C1.07664 41.8428 -0.326511 40.108 0.0662597 38.2676L8.30705 5.14905C8.94825 2.14613 11.601 0 14.6714 0H23.6464C25.5284 0 26.9315 1.73485 26.5387 3.57518Z" fill="#384BFF"/>
<path d="M49.4096 2.32491L45.914 21.9864C44.8209 28.1354 40.2977 32.5299 35.0628 32.5299H27.6255C26.6066 32.5299 25.8472 31.402 26.0598 30.2056L29.5554 10.544C30.6485 4.39511 35.1717 0 40.4066 0H47.8439C48.8628 0 49.6221 1.1279 49.4096 2.32491Z" fill="#384BFF"/>
</svg>
