<?xml version="1.0" encoding="UTF-8"?>
<svg id="Layer_1" data-name="Layer 1" xmlns="http://www.w3.org/2000/svg" xmlns:xlink="http://www.w3.org/1999/xlink" viewBox="0 0 383 244">
  <defs>
    <style>
      .cls-1 {
        fill: #2e3192;
      }

      .cls-2 {
        fill: none;
      }

      .cls-3 {
        clip-path: url(#clippath-1);
      }

      .cls-4 {
        fill: #231f20;
      }

      .cls-5 {
        fill: #ed1c24;
      }

      .cls-6 {
        clip-path: url(#clippath);
      }
    </style>
    <clipPath id="clippath">
      <rect class="cls-2" width="382.76" height="244"/>
    </clipPath>
    <clipPath id="clippath-1">
      <rect class="cls-2" width="382.76" height="244"/>
    </clipPath>
  </defs>
  <g id="Artwork_2" data-name="Artwork 2">
    <g class="cls-6">
      <g class="cls-3">
        <path class="cls-1" d="M191.14,24.07c-4.71,3.54-9.19,7.47-13.4,11.76l13.66,11.21,13.33-11.23c-4.23-4.24-8.77-8.17-13.59-11.74M190.02,195.07c-3.64,3.42-7.53,6.58-11.64,9.45,4.15,4.14,8.66,8.04,13.52,11.64,3.66-2.76,7.16-5.72,10.47-8.87-4.47-3.83-8.59-7.91-12.35-12.21M175.33,206.57c-15.99,10.32-35.04,16.31-55.5,16.31-56.59,0-102.47-45.88-102.47-102.48S63.24,17.92,119.84,17.92c20.2,0,39.03,5.84,54.9,15.93l13.46-11.9C168.81,8.47,145.25.56,119.84.56,53.65.56,0,54.21,0,120.4s53.65,119.84,119.84,119.84c25.73,0,49.57-8.11,69.09-21.91-4.77-3.72-9.31-7.65-13.6-11.76M207,38.15c-4.62,3.45-9.05,7.21-13.25,11.25,17.7,18.42,28.58,43.44,28.58,70.99s-11.51,54.01-30.11,72.55l12.32,12.23c21.72-21.69,35.15-51.67,35.15-84.78s-12.42-60.79-32.68-82.25"/>
        <path class="cls-5" d="M298.31,234.45c-33.78,10.31-71.68,5.62-102.81-15.73-1.15-.79-2.3-1.6-3.43-2.44-.06-.04-.12-.08-.17-.13-4.86-3.6-9.36-7.49-13.52-11.64l-2.62-2.7c-38.86-41.36-43.88-105.82-8.99-153.11,2.8-3.79,5.77-7.37,8.92-10.73,4.78,3.45,9.33,7.2,13.63,11.21-2.79,2.96-5.43,6.11-7.89,9.45-29.49,39.98-25.58,94.83,6.15,133.55.8.97,1.61,1.94,2.45,2.89,3.76,4.3,7.87,8.39,12.35,12.21l3.33,2.75c1.17.93,2.36,1.85,3.58,2.74,26.98,19.91,59.34,26.8,89.03,21.67"/>
        <path class="cls-5" d="M382.76,111.39c-5.33-27.33-20.99-53.3-45.84-71.64-39.9-29.44-91.61-30.42-128.98-6.11-4.34-4.19-8.9-8.15-13.67-11.85,41.02-28.86,97.51-29.8,140.08,1.62,29.38,21.67,45.99,54.21,48.4,87.98"/>
        <polygon class="cls-4" points="342.19 202.53 327.57 197.35 316.85 199.22 330.81 207.6 342.19 202.53"/>
        <path class="cls-4" d="M382.13,197.89c-8.19-3.48-17.47-3.32-25.54.45l-11.3,5.29-11.86,5.55-15.66,7.33-10.03-6.58-6.28,2.64,8.07,15.26-8.76,5.85,13.67-2.77,28.09-11.67-3.82,24.75,8.14-5.2,10.94-26.56,24.34-14.35Z"/>
        <path class="cls-4" d="M204.73,35.81l-11.86,9.99-.63.54-.84.71-.4-.32-.64-.53-12.62-10.35c4.21-4.3,8.7-8.22,13.4-11.76,4.82,3.57,9.36,7.5,13.59,11.74"/>
        <path class="cls-5" d="M205.7,210.03c-3.28,3.02-6.68,5.92-10.2,8.68-1.15-.78-2.3-1.6-3.43-2.43-.06-.04-.12-.08-.17-.13-4.86-3.6-9.36-7.49-13.52-11.64l-2.62-2.7c4.1-3.01,8.04-6.23,11.81-9.63.8.97,1.61,1.94,2.45,2.89,3.76,4.3,7.87,8.39,12.35,12.21l3.33,2.75Z"/>
        <polygon class="cls-4" points="173.8 143.94 191.23 51.54 208.68 143.94 191.24 177.79 173.8 143.94"/>
      </g>
    </g>
  </g>
</svg>