<?xml version="1.0" encoding="UTF-8"?>
<svg id="Layer_1" data-name="Layer 1" xmlns="http://www.w3.org/2000/svg" xmlns:xlink="http://www.w3.org/1999/xlink" viewBox="0 0 512 512">
  <defs>
    <style>
      .cls-1 {
        letter-spacing: .01em;
      }

      .cls-2, .cls-3 {
        font-family: ElMessiri-Bold, 'El Messiri';
        font-size: 42.73px;
        font-weight: 700;
      }

      .cls-2, .cls-4 {
        fill: #ed1c24;
      }

      .cls-5 {
        fill: #2e3192;
      }

      .cls-6 {
        fill: none;
      }

      .cls-7 {
        clip-path: url(#clippath-1);
      }

      .cls-8 {
        fill: #231f20;
      }

      .cls-9 {
        letter-spacing: 0em;
      }

      .cls-3 {
        fill: #2e3191;
      }

      .cls-10 {
        clip-path: url(#clippath);
      }

      .cls-11 {
        letter-spacing: 0em;
      }
    </style>
    <clipPath id="clippath">
      <rect class="cls-6" x="24.04" y="128" width="463.93" height="256"/>
    </clipPath>
    <clipPath id="clippath-1">
      <rect class="cls-6" x="24.04" y="128" width="463.93" height="256"/>
    </clipPath>
  </defs>
  <g id="Artwork_1" data-name="Artwork 1">
    <g class="cls-10">
      <g class="cls-7">
        <path class="cls-5" d="M241.52,144.66c-3.26,2.45-6.36,5.17-9.28,8.14l9.46,7.76,9.22-7.77c-2.93-2.93-6.07-5.65-9.4-8.12M240.75,263.02c-2.52,2.37-5.21,4.55-8.06,6.54,2.88,2.87,5.99,5.56,9.36,8.05,2.53-1.91,4.95-3.96,7.25-6.14-3.1-2.65-5.95-5.48-8.55-8.45M230.58,270.98c-11.07,7.14-24.26,11.29-38.41,11.29-39.17,0-70.93-31.76-70.93-70.94s31.75-70.93,70.93-70.93c13.98,0,27.02,4.04,38,11.03l9.32-8.23c-13.42-9.34-29.73-14.81-47.32-14.81-45.81,0-82.95,37.14-82.95,82.95s37.13,82.95,82.95,82.95c17.81,0,34.31-5.61,47.82-15.17-3.31-2.58-6.44-5.3-9.41-8.14M252.5,154.41c-3.19,2.39-6.26,4.99-9.17,7.79,12.25,12.75,19.78,30.07,19.78,49.14s-7.97,37.38-20.84,50.22l8.53,8.46c15.03-15.01,24.33-35.76,24.33-58.68s-8.6-42.07-22.62-56.93"/>
        <path class="cls-4" d="M315.7,290.28c-23.38,7.14-49.62,3.89-71.16-10.88-.8-.54-1.59-1.11-2.37-1.69-.04-.03-.08-.06-.12-.09-3.36-2.49-6.48-5.19-9.36-8.05l-1.81-1.87c-26.9-28.63-30.37-73.24-6.22-105.98,1.94-2.63,4-5.1,6.17-7.43,3.31,2.39,6.46,4.98,9.43,7.76-1.93,2.05-3.76,4.23-5.46,6.54-20.41,27.68-17.71,65.64,4.26,92.44.55.67,1.12,1.34,1.69,2,2.6,2.98,5.45,5.81,8.55,8.45l2.31,1.9c.81.65,1.63,1.28,2.48,1.9,18.67,13.78,41.08,18.55,61.62,15"/>
        <path class="cls-4" d="M374.15,205.1c-3.69-18.92-14.53-36.89-31.73-49.58-27.62-20.37-63.41-21.06-89.27-4.23-3-2.9-6.16-5.64-9.46-8.2,28.39-19.97,67.49-20.62,96.96,1.12,20.33,15,31.84,37.52,33.5,60.89"/>
        <polygon class="cls-8" points="346.07 268.18 335.96 264.6 328.53 265.9 338.19 271.69 346.07 268.18"/>
        <path class="cls-8" d="M373.72,264.97c-5.67-2.41-12.1-2.3-17.67.31l-7.82,3.66-8.21,3.84-10.84,5.07-6.94-4.55-4.35,1.83,5.59,10.56-6.06,4.05,9.46-1.92,19.45-8.08-2.64,17.13,5.63-3.6,7.57-18.39,16.85-9.93Z"/>
        <path class="cls-8" d="M250.93,152.79l-8.21,6.91-.44.37-.58.49-.28-.22-.44-.37-8.74-7.16c2.92-2.97,6.02-5.69,9.28-8.14,3.33,2.47,6.48,5.19,9.4,8.12"/>
        <path class="cls-4" d="M251.6,273.38c-2.27,2.09-4.63,4.1-7.06,6.01-.8-.54-1.59-1.11-2.37-1.69-.04-.03-.08-.06-.12-.09-3.36-2.49-6.48-5.19-9.36-8.05l-1.81-1.87c2.84-2.08,5.57-4.31,8.17-6.67.55.67,1.12,1.34,1.69,2,2.6,2.98,5.45,5.81,8.55,8.45l2.31,1.9Z"/>
        <polygon class="cls-8" points="229.52 227.63 241.59 163.68 253.66 227.63 241.59 251.06 229.52 227.63"/>
        <text class="cls-3" transform="translate(24.04 343.57)"><tspan class="cls-1" x="0" y="0">OCEAN</tspan><tspan x="145.33" y="0"> </tspan></text>
      </g>
      <text class="cls-2" transform="translate(180.48 343.57)"><tspan class="cls-9" x="0" y="0">C</tspan><tspan class="cls-11" x="29.44" y="0">O</tspan><tspan class="cls-9" x="60.93" y="0">NNECTIN</tspan><tspan x="244.85" y="0">G</tspan></text>
    </g>
  </g>
</svg>