<svg xmlns="http://www.w3.org/2000/svg" xmlns:xlink="http://www.w3.org/1999/xlink" width="189" zoomAndPan="magnify" viewBox="0 0 141.75 141.750002" height="189" preserveAspectRatio="xMidYMid meet" version="1.0"><defs><g/><clipPath id="2b7bb6cefa"><path d="M 37.140625 37.128906 L 81.984375 37.128906 L 81.984375 82.097656 L 37.140625 82.097656 Z M 37.140625 37.128906 " clip-rule="nonzero"/></clipPath><clipPath id="92621204d6"><path d="M 75.8125 44.257812 C 74.953125 44.902344 74.125 45.601562 73.335938 46.359375 C 76.644531 49.800781 78.675781 54.472656 78.675781 59.621094 C 78.675781 64.917969 76.527344 69.710938 73.050781 73.179688 L 75.351562 75.460938 C 79.410156 71.410156 81.917969 65.808594 81.917969 59.621094 C 81.917969 53.671875 79.597656 48.265625 75.8125 44.257812 M 69.898438 75.722656 C 66.910156 77.648438 63.351562 78.769531 59.53125 78.769531 C 48.957031 78.769531 40.386719 70.195312 40.386719 59.621094 C 40.386719 49.046875 48.957031 40.476562 59.53125 40.476562 C 63.304688 40.476562 66.820312 41.570312 69.789062 43.453125 L 72.300781 41.234375 C 68.679688 38.710938 64.277344 37.234375 59.53125 37.234375 C 47.164062 37.234375 37.140625 47.257812 37.140625 59.625 C 37.140625 71.988281 47.164062 82.011719 59.53125 82.011719 C 64.335938 82.011719 68.789062 80.5 72.4375 77.917969 C 71.546875 77.222656 70.699219 76.492188 69.898438 75.722656 M 72.640625 73.574219 C 71.960938 74.214844 71.234375 74.804688 70.46875 75.339844 C 71.242188 76.113281 72.085938 76.839844 72.992188 77.515625 C 73.675781 77 74.332031 76.445312 74.949219 75.855469 C 74.113281 75.144531 73.34375 74.378906 72.640625 73.574219 M 72.851562 41.628906 C 71.972656 42.289062 71.136719 43.023438 70.347656 43.824219 L 72.898438 45.917969 L 75.390625 43.820312 C 74.601562 43.03125 73.753906 42.296875 72.851562 41.628906 " clip-rule="nonzero"/></clipPath><clipPath id="b411b4c444"><path d="M 63.898438 44.191406 L 92.886719 44.191406 L 92.886719 81.972656 L 63.898438 81.972656 Z M 63.898438 44.191406 " clip-rule="nonzero"/></clipPath><clipPath id="27d75f779a"><path d="M 92.871094 80.929688 C 86.5625 82.859375 79.480469 81.980469 73.664062 77.992188 L 73.027344 77.539062 C 73.015625 77.53125 73.003906 77.519531 72.992188 77.515625 C 72.085938 76.839844 71.242188 76.113281 70.46875 75.339844 L 69.980469 74.835938 C 62.71875 67.109375 61.78125 55.066406 68.300781 46.230469 C 68.824219 45.519531 69.378906 44.851562 69.964844 44.222656 C 70.859375 44.867188 71.707031 45.570312 72.511719 46.320312 C 71.992188 46.871094 71.496094 47.460938 71.039062 48.085938 C 65.527344 55.554688 66.257812 65.800781 72.1875 73.035156 L 72.640625 73.574219 C 73.34375 74.378906 74.113281 75.144531 74.949219 75.855469 L 75.570312 76.371094 C 75.789062 76.546875 76.011719 76.714844 76.242188 76.882812 C 81.28125 80.601562 87.328125 81.890625 92.871094 80.929688 " clip-rule="nonzero"/></clipPath><clipPath id="f2ab90f2d8"><path d="M 73.4375 37.128906 L 108.742188 37.128906 L 108.742188 57.941406 L 73.4375 57.941406 Z M 73.4375 37.128906 " clip-rule="nonzero"/></clipPath><clipPath id="d5fc7c45e1"><path d="M 108.652344 57.941406 C 107.65625 52.832031 104.730469 47.984375 100.085938 44.558594 C 92.632812 39.058594 82.972656 38.875 75.992188 43.414062 C 75.179688 42.632812 74.328125 41.890625 73.4375 41.203125 C 81.097656 35.808594 91.652344 35.632812 99.609375 41.503906 C 105.097656 45.554688 108.199219 51.632812 108.652344 57.941406 " clip-rule="nonzero"/></clipPath><clipPath id="621dea4295"><path d="M 96.230469 74 L 101.1875 74 L 101.1875 76 L 96.230469 76 Z M 96.230469 74 " clip-rule="nonzero"/></clipPath><clipPath id="1c1c8a3f40"><path d="M 101.070312 74.96875 L 98.339844 74 L 96.335938 74.351562 L 98.945312 75.917969 Z M 101.070312 74.96875 " clip-rule="nonzero"/></clipPath><clipPath id="3004bdbb10"><path d="M 93.257812 73.550781 L 108.617188 73.550781 L 108.617188 82.714844 L 93.257812 82.714844 Z M 93.257812 73.550781 " clip-rule="nonzero"/></clipPath><clipPath id="22481a0afd"><path d="M 108.535156 74.101562 C 107.003906 73.449219 105.269531 73.480469 103.761719 74.183594 L 96.511719 77.578125 L 94.636719 76.351562 L 93.460938 76.84375 L 94.96875 79.695312 L 93.332031 80.789062 L 95.886719 80.269531 L 101.136719 78.089844 L 100.421875 82.714844 L 101.941406 81.742188 L 103.984375 76.78125 Z M 108.535156 74.101562 " clip-rule="nonzero"/></clipPath><clipPath id="432a9f33b3"><path d="M 70.339844 41.589844 L 75.417969 41.589844 L 75.417969 45.925781 L 70.339844 45.925781 Z M 70.339844 41.589844 " clip-rule="nonzero"/></clipPath><clipPath id="ecec78b37b"><path d="M 75.390625 43.820312 L 72.898438 45.917969 L 72.824219 45.859375 L 72.707031 45.757812 L 70.347656 43.824219 C 71.136719 43.023438 71.972656 42.289062 72.851562 41.628906 C 73.753906 42.296875 74.601562 43.027344 75.390625 43.820312 " clip-rule="nonzero"/></clipPath><clipPath id="99f2a97c55"><path d="M 69.96875 73 L 75.667969 73 L 75.667969 78 L 69.96875 78 Z M 69.96875 73 " clip-rule="nonzero"/></clipPath><clipPath id="238b323cfa"><path d="M 75.570312 76.371094 C 74.957031 76.9375 74.324219 77.476562 73.664062 77.992188 L 73.027344 77.539062 C 73.015625 77.53125 73.003906 77.519531 72.992188 77.515625 C 72.085938 76.839844 71.242188 76.113281 70.46875 75.339844 L 69.980469 74.835938 C 70.746094 74.273438 71.484375 73.671875 72.1875 73.035156 L 72.640625 73.574219 C 73.34375 74.378906 74.113281 75.144531 74.949219 75.855469 Z M 75.570312 76.371094 " clip-rule="nonzero"/></clipPath><clipPath id="1bd19d3cc1"><path d="M 69.597656 46.667969 L 76.164062 46.667969 L 76.164062 70.453125 L 69.597656 70.453125 Z M 69.597656 46.667969 " clip-rule="nonzero"/></clipPath><clipPath id="ce398a188d"><path d="M 69.609375 64.023438 L 72.871094 46.761719 L 76.128906 64.023438 L 72.871094 70.34375 Z M 69.609375 64.023438 " clip-rule="nonzero"/></clipPath></defs><g clip-path="url(#2b7bb6cefa)"><g clip-path="url(#92621204d6)"><path fill="#5c79ff" d="M 36.519531 36.507812 L 109.238281 36.507812 L 109.238281 83.335938 L 36.519531 83.335938 Z M 36.519531 36.507812 " fill-opacity="1" fill-rule="nonzero"/></g></g><g clip-path="url(#b411b4c444)"><g clip-path="url(#27d75f779a)"><path fill="#ff5353" d="M 36.519531 36.507812 L 109.238281 36.507812 L 109.238281 83.335938 L 36.519531 83.335938 Z M 36.519531 36.507812 " fill-opacity="1" fill-rule="nonzero"/></g></g><g clip-path="url(#f2ab90f2d8)"><g clip-path="url(#d5fc7c45e1)"><path fill="#ff5353" d="M 36.519531 36.507812 L 109.238281 36.507812 L 109.238281 83.335938 L 36.519531 83.335938 Z M 36.519531 36.507812 " fill-opacity="1" fill-rule="nonzero"/></g></g><g clip-path="url(#621dea4295)"><g clip-path="url(#1c1c8a3f40)"><path fill="#ffffff" d="M 36.519531 36.507812 L 109.238281 36.507812 L 109.238281 83.335938 L 36.519531 83.335938 Z M 36.519531 36.507812 " fill-opacity="1" fill-rule="nonzero"/></g></g><g clip-path="url(#3004bdbb10)"><g clip-path="url(#22481a0afd)"><path fill="#ffffff" d="M 36.519531 36.507812 L 109.238281 36.507812 L 109.238281 83.335938 L 36.519531 83.335938 Z M 36.519531 36.507812 " fill-opacity="1" fill-rule="nonzero"/></g></g><g clip-path="url(#432a9f33b3)"><g clip-path="url(#ecec78b37b)"><path fill="#ffffff" d="M 36.519531 36.507812 L 109.238281 36.507812 L 109.238281 83.335938 L 36.519531 83.335938 Z M 36.519531 36.507812 " fill-opacity="1" fill-rule="nonzero"/></g></g><g clip-path="url(#99f2a97c55)"><g clip-path="url(#238b323cfa)"><path fill="#ff5353" d="M 36.519531 36.507812 L 109.238281 36.507812 L 109.238281 83.335938 L 36.519531 83.335938 Z M 36.519531 36.507812 " fill-opacity="1" fill-rule="nonzero"/></g></g><g clip-path="url(#1bd19d3cc1)"><g clip-path="url(#ce398a188d)"><path fill="#ffffff" d="M 36.519531 36.507812 L 109.238281 36.507812 L 109.238281 83.335938 L 36.519531 83.335938 Z M 36.519531 36.507812 " fill-opacity="1" fill-rule="nonzero"/></g></g><g fill="#5c79ff" fill-opacity="1"><g transform="translate(14.148275, 94.23487)"><g><path d="M 4.234375 0.234375 C 3.484375 0.234375 2.816406 0.0546875 2.234375 -0.296875 C 1.660156 -0.648438 1.210938 -1.132812 0.890625 -1.75 C 0.578125 -2.363281 0.421875 -3.050781 0.421875 -3.8125 C 0.421875 -4.5625 0.578125 -5.242188 0.890625 -5.859375 C 1.210938 -6.472656 1.660156 -6.957031 2.234375 -7.3125 C 2.816406 -7.664062 3.484375 -7.84375 4.234375 -7.84375 C 4.972656 -7.84375 5.628906 -7.664062 6.203125 -7.3125 C 6.785156 -6.957031 7.234375 -6.472656 7.546875 -5.859375 C 7.867188 -5.242188 8.03125 -4.5625 8.03125 -3.8125 C 8.03125 -3.050781 7.867188 -2.363281 7.546875 -1.75 C 7.234375 -1.132812 6.785156 -0.648438 6.203125 -0.296875 C 5.628906 0.0546875 4.972656 0.234375 4.234375 0.234375 Z M 4.234375 -0.28125 C 4.929688 -0.28125 5.472656 -0.585938 5.859375 -1.203125 C 6.242188 -1.816406 6.4375 -2.6875 6.4375 -3.8125 C 6.4375 -4.925781 6.242188 -5.789062 5.859375 -6.40625 C 5.472656 -7.019531 4.929688 -7.328125 4.234375 -7.328125 C 3.535156 -7.328125 2.992188 -7.019531 2.609375 -6.40625 C 2.234375 -5.789062 2.046875 -4.925781 2.046875 -3.8125 C 2.046875 -2.6875 2.234375 -1.816406 2.609375 -1.203125 C 2.992188 -0.585938 3.535156 -0.28125 4.234375 -0.28125 Z M 4.234375 -0.28125 "/></g></g></g><g fill="#5c79ff" fill-opacity="1"><g transform="translate(22.709726, 94.23487)"><g><path d="M 4.234375 0.234375 C 3.441406 0.234375 2.757812 0.0625 2.1875 -0.28125 C 1.613281 -0.625 1.175781 -1.09375 0.875 -1.6875 C 0.570312 -2.28125 0.421875 -2.945312 0.421875 -3.6875 C 0.421875 -4.457031 0.585938 -5.160156 0.921875 -5.796875 C 1.253906 -6.429688 1.707031 -6.929688 2.28125 -7.296875 C 2.863281 -7.660156 3.515625 -7.84375 4.234375 -7.84375 C 4.910156 -7.84375 5.472656 -7.753906 5.921875 -7.578125 C 6.378906 -7.410156 6.726562 -7.1875 6.96875 -6.90625 C 7.101562 -6.726562 7.1875 -6.507812 7.21875 -6.25 C 7.25 -5.988281 7.265625 -5.625 7.265625 -5.15625 L 6.921875 -5.15625 C 6.773438 -5.863281 6.503906 -6.398438 6.109375 -6.765625 C 5.722656 -7.140625 5.210938 -7.328125 4.578125 -7.328125 C 3.796875 -7.328125 3.175781 -7.046875 2.71875 -6.484375 C 2.269531 -5.929688 2.046875 -5 2.046875 -3.6875 C 2.046875 -2.707031 2.25 -1.894531 2.65625 -1.25 C 3.070312 -0.601562 3.710938 -0.28125 4.578125 -0.28125 C 5.117188 -0.28125 5.613281 -0.421875 6.0625 -0.703125 C 6.507812 -0.992188 6.875 -1.40625 7.15625 -1.9375 L 7.546875 -1.625 C 7.179688 -0.976562 6.738281 -0.503906 6.21875 -0.203125 C 5.695312 0.0859375 5.035156 0.234375 4.234375 0.234375 Z M 4.234375 0.234375 "/></g></g></g><g fill="#5c79ff" fill-opacity="1"><g transform="translate(30.648949, 94.23487)"><g><path d="M 1.09375 -6.109375 C 1.09375 -6.503906 1.035156 -6.796875 0.921875 -6.984375 C 0.816406 -7.171875 0.601562 -7.265625 0.28125 -7.265625 L 0.171875 -7.265625 L 0.171875 -7.609375 L 5.265625 -7.609375 C 5.910156 -7.609375 6.234375 -7.300781 6.234375 -6.6875 L 6.234375 -5.703125 L 5.890625 -5.703125 C 5.890625 -6.179688 5.769531 -6.53125 5.53125 -6.75 C 5.289062 -6.976562 4.929688 -7.09375 4.453125 -7.09375 L 2.59375 -7.09375 L 2.59375 -4.203125 L 5.59375 -4.203125 L 5.59375 -3.6875 L 2.59375 -3.6875 L 2.59375 -0.515625 L 4.5625 -0.515625 C 5 -0.515625 5.363281 -0.613281 5.65625 -0.8125 C 5.945312 -1.007812 6.191406 -1.347656 6.390625 -1.828125 L 6.703125 -1.71875 L 6.359375 -0.8125 C 6.265625 -0.53125 6.144531 -0.320312 6 -0.1875 C 5.863281 -0.0625 5.648438 0 5.359375 0 L 1.09375 0 Z M 1.09375 -6.109375 "/></g></g></g><g fill="#5c79ff" fill-opacity="1"><g transform="translate(37.677877, 94.23487)"><g><path d="M 7.234375 0.046875 C 6.753906 0.046875 6.316406 -0.0507812 5.921875 -0.25 C 5.535156 -0.457031 5.21875 -0.859375 4.96875 -1.453125 L 4.703125 -2.09375 L 1.640625 -2.09375 L 0.6875 0 L 0.09375 0 L 3.5 -7.609375 L 4.015625 -7.609375 L 6.59375 -1.453125 C 6.882812 -0.734375 7.285156 -0.347656 7.796875 -0.296875 L 7.796875 -0.015625 C 7.660156 0.0234375 7.472656 0.046875 7.234375 0.046875 Z M 4.484375 -2.625 L 3.21875 -5.625 L 1.875 -2.625 Z M 4.484375 -2.625 "/></g></g></g><g fill="#5c79ff" fill-opacity="1"><g transform="translate(45.24837, 94.23487)"><g><path d="M 1.703125 -5.703125 L 1.703125 0 L 1.125 0 L 1.125 -6.234375 C 1.125 -6.554688 1.046875 -6.804688 0.890625 -6.984375 C 0.734375 -7.171875 0.46875 -7.265625 0.09375 -7.265625 L 0.03125 -7.265625 L 0.03125 -7.609375 L 0.84375 -7.609375 C 1.269531 -7.609375 1.617188 -7.550781 1.890625 -7.4375 C 2.171875 -7.332031 2.398438 -7.160156 2.578125 -6.921875 L 6.546875 -2.3125 L 6.546875 -7.609375 L 7.125 -7.609375 L 7.125 0.03125 L 6.59375 0.03125 Z M 1.703125 -5.703125 "/></g></g></g><g fill="#2e3191" fill-opacity="1"><g transform="translate(53.348668, 94.23487)"><g/></g></g><g fill="#ff4c4c" fill-opacity="1"><g transform="translate(56.355085, 94.23487)"><g><path d="M 4.234375 0.234375 C 3.441406 0.234375 2.757812 0.0625 2.1875 -0.28125 C 1.613281 -0.625 1.175781 -1.09375 0.875 -1.6875 C 0.570312 -2.28125 0.421875 -2.945312 0.421875 -3.6875 C 0.421875 -4.457031 0.585938 -5.160156 0.921875 -5.796875 C 1.253906 -6.429688 1.707031 -6.929688 2.28125 -7.296875 C 2.863281 -7.660156 3.515625 -7.84375 4.234375 -7.84375 C 4.910156 -7.84375 5.472656 -7.753906 5.921875 -7.578125 C 6.378906 -7.410156 6.726562 -7.1875 6.96875 -6.90625 C 7.101562 -6.726562 7.1875 -6.507812 7.21875 -6.25 C 7.25 -5.988281 7.265625 -5.625 7.265625 -5.15625 L 6.921875 -5.15625 C 6.773438 -5.863281 6.503906 -6.398438 6.109375 -6.765625 C 5.722656 -7.140625 5.210938 -7.328125 4.578125 -7.328125 C 3.796875 -7.328125 3.175781 -7.046875 2.71875 -6.484375 C 2.269531 -5.929688 2.046875 -5 2.046875 -3.6875 C 2.046875 -2.707031 2.25 -1.894531 2.65625 -1.25 C 3.070312 -0.601562 3.710938 -0.28125 4.578125 -0.28125 C 5.117188 -0.28125 5.613281 -0.421875 6.0625 -0.703125 C 6.507812 -0.992188 6.875 -1.40625 7.15625 -1.9375 L 7.546875 -1.625 C 7.179688 -0.976562 6.738281 -0.503906 6.21875 -0.203125 C 5.695312 0.0859375 5.035156 0.234375 4.234375 0.234375 Z M 4.234375 0.234375 "/></g></g></g><g fill="#ff4c4c" fill-opacity="1"><g transform="translate(64.294307, 94.23487)"><g><path d="M 4.234375 0.234375 C 3.484375 0.234375 2.816406 0.0546875 2.234375 -0.296875 C 1.660156 -0.648438 1.210938 -1.132812 0.890625 -1.75 C 0.578125 -2.363281 0.421875 -3.050781 0.421875 -3.8125 C 0.421875 -4.5625 0.578125 -5.242188 0.890625 -5.859375 C 1.210938 -6.472656 1.660156 -6.957031 2.234375 -7.3125 C 2.816406 -7.664062 3.484375 -7.84375 4.234375 -7.84375 C 4.972656 -7.84375 5.628906 -7.664062 6.203125 -7.3125 C 6.785156 -6.957031 7.234375 -6.472656 7.546875 -5.859375 C 7.867188 -5.242188 8.03125 -4.5625 8.03125 -3.8125 C 8.03125 -3.050781 7.867188 -2.363281 7.546875 -1.75 C 7.234375 -1.132812 6.785156 -0.648438 6.203125 -0.296875 C 5.628906 0.0546875 4.972656 0.234375 4.234375 0.234375 Z M 4.234375 -0.28125 C 4.929688 -0.28125 5.472656 -0.585938 5.859375 -1.203125 C 6.242188 -1.816406 6.4375 -2.6875 6.4375 -3.8125 C 6.4375 -4.925781 6.242188 -5.789062 5.859375 -6.40625 C 5.472656 -7.019531 4.929688 -7.328125 4.234375 -7.328125 C 3.535156 -7.328125 2.992188 -7.019531 2.609375 -6.40625 C 2.234375 -5.789062 2.046875 -4.925781 2.046875 -3.8125 C 2.046875 -2.6875 2.234375 -1.816406 2.609375 -1.203125 C 2.992188 -0.585938 3.535156 -0.28125 4.234375 -0.28125 Z M 4.234375 -0.28125 "/></g></g></g><g fill="#ff4c4c" fill-opacity="1"><g transform="translate(72.855758, 94.23487)"><g><path d="M 1.703125 -5.703125 L 1.703125 0 L 1.125 0 L 1.125 -6.234375 C 1.125 -6.554688 1.046875 -6.804688 0.890625 -6.984375 C 0.734375 -7.171875 0.46875 -7.265625 0.09375 -7.265625 L 0.03125 -7.265625 L 0.03125 -7.609375 L 0.84375 -7.609375 C 1.269531 -7.609375 1.617188 -7.550781 1.890625 -7.4375 C 2.171875 -7.332031 2.398438 -7.160156 2.578125 -6.921875 L 6.546875 -2.3125 L 6.546875 -7.609375 L 7.125 -7.609375 L 7.125 0.03125 L 6.59375 0.03125 Z M 1.703125 -5.703125 "/></g></g></g><g fill="#ff4c4c" fill-opacity="1"><g transform="translate(80.944771, 94.23487)"><g><path d="M 1.703125 -5.703125 L 1.703125 0 L 1.125 0 L 1.125 -6.234375 C 1.125 -6.554688 1.046875 -6.804688 0.890625 -6.984375 C 0.734375 -7.171875 0.46875 -7.265625 0.09375 -7.265625 L 0.03125 -7.265625 L 0.03125 -7.609375 L 0.84375 -7.609375 C 1.269531 -7.609375 1.617188 -7.550781 1.890625 -7.4375 C 2.171875 -7.332031 2.398438 -7.160156 2.578125 -6.921875 L 6.546875 -2.3125 L 6.546875 -7.609375 L 7.125 -7.609375 L 7.125 0.03125 L 6.59375 0.03125 Z M 1.703125 -5.703125 "/></g></g></g><g fill="#ff4c4c" fill-opacity="1"><g transform="translate(89.033786, 94.23487)"><g><path d="M 1.09375 -6.109375 C 1.09375 -6.503906 1.035156 -6.796875 0.921875 -6.984375 C 0.816406 -7.171875 0.601562 -7.265625 0.28125 -7.265625 L 0.171875 -7.265625 L 0.171875 -7.609375 L 5.265625 -7.609375 C 5.910156 -7.609375 6.234375 -7.300781 6.234375 -6.6875 L 6.234375 -5.703125 L 5.890625 -5.703125 C 5.890625 -6.179688 5.769531 -6.53125 5.53125 -6.75 C 5.289062 -6.976562 4.929688 -7.09375 4.453125 -7.09375 L 2.59375 -7.09375 L 2.59375 -4.203125 L 5.59375 -4.203125 L 5.59375 -3.6875 L 2.59375 -3.6875 L 2.59375 -0.515625 L 4.5625 -0.515625 C 5 -0.515625 5.363281 -0.613281 5.65625 -0.8125 C 5.945312 -1.007812 6.191406 -1.347656 6.390625 -1.828125 L 6.703125 -1.71875 L 6.359375 -0.8125 C 6.265625 -0.53125 6.144531 -0.320312 6 -0.1875 C 5.863281 -0.0625 5.648438 0 5.359375 0 L 1.09375 0 Z M 1.09375 -6.109375 "/></g></g></g><g fill="#ff4c4c" fill-opacity="1"><g transform="translate(96.062715, 94.23487)"><g><path d="M 4.234375 0.234375 C 3.441406 0.234375 2.757812 0.0625 2.1875 -0.28125 C 1.613281 -0.625 1.175781 -1.09375 0.875 -1.6875 C 0.570312 -2.28125 0.421875 -2.945312 0.421875 -3.6875 C 0.421875 -4.457031 0.585938 -5.160156 0.921875 -5.796875 C 1.253906 -6.429688 1.707031 -6.929688 2.28125 -7.296875 C 2.863281 -7.660156 3.515625 -7.84375 4.234375 -7.84375 C 4.910156 -7.84375 5.472656 -7.753906 5.921875 -7.578125 C 6.378906 -7.410156 6.726562 -7.1875 6.96875 -6.90625 C 7.101562 -6.726562 7.1875 -6.507812 7.21875 -6.25 C 7.25 -5.988281 7.265625 -5.625 7.265625 -5.15625 L 6.921875 -5.15625 C 6.773438 -5.863281 6.503906 -6.398438 6.109375 -6.765625 C 5.722656 -7.140625 5.210938 -7.328125 4.578125 -7.328125 C 3.796875 -7.328125 3.175781 -7.046875 2.71875 -6.484375 C 2.269531 -5.929688 2.046875 -5 2.046875 -3.6875 C 2.046875 -2.707031 2.25 -1.894531 2.65625 -1.25 C 3.070312 -0.601562 3.710938 -0.28125 4.578125 -0.28125 C 5.117188 -0.28125 5.613281 -0.421875 6.0625 -0.703125 C 6.507812 -0.992188 6.875 -1.40625 7.15625 -1.9375 L 7.546875 -1.625 C 7.179688 -0.976562 6.738281 -0.503906 6.21875 -0.203125 C 5.695312 0.0859375 5.035156 0.234375 4.234375 0.234375 Z M 4.234375 0.234375 "/></g></g></g><g fill="#ff4c4c" fill-opacity="1"><g transform="translate(104.001939, 94.23487)"><g><path d="M 2.671875 -7.09375 L 1.859375 -7.09375 C 1.421875 -7.09375 1.085938 -6.984375 0.859375 -6.765625 C 0.640625 -6.554688 0.53125 -6.203125 0.53125 -5.703125 L 0.1875 -5.703125 L 0.1875 -6.6875 C 0.1875 -7.300781 0.515625 -7.609375 1.171875 -7.609375 L 6.578125 -7.609375 L 6.578125 -7.09375 L 4.171875 -7.09375 L 4.171875 0 L 2.671875 0 Z M 2.671875 -7.09375 "/></g></g></g><g fill="#ff4c4c" fill-opacity="1"><g transform="translate(110.742799, 94.23487)"><g><path d="M 1.953125 0 C 1.671875 0 1.457031 -0.0390625 1.3125 -0.125 C 1.164062 -0.21875 1.0625 -0.367188 1 -0.578125 C 0.9375 -0.796875 0.90625 -1.101562 0.90625 -1.5 L 0.90625 -7.609375 L 2.40625 -7.609375 L 2.40625 -1.5 C 2.40625 -1.101562 2.457031 -0.8125 2.5625 -0.625 C 2.675781 -0.4375 2.894531 -0.34375 3.21875 -0.34375 L 3.328125 -0.34375 L 3.328125 0 Z M 1.953125 0 "/></g></g></g><g fill="#ff4c4c" fill-opacity="1"><g transform="translate(114.361031, 94.23487)"><g><path d="M 1.703125 -5.703125 L 1.703125 0 L 1.125 0 L 1.125 -6.234375 C 1.125 -6.554688 1.046875 -6.804688 0.890625 -6.984375 C 0.734375 -7.171875 0.46875 -7.265625 0.09375 -7.265625 L 0.03125 -7.265625 L 0.03125 -7.609375 L 0.84375 -7.609375 C 1.269531 -7.609375 1.617188 -7.550781 1.890625 -7.4375 C 2.171875 -7.332031 2.398438 -7.160156 2.578125 -6.921875 L 6.546875 -2.3125 L 6.546875 -7.609375 L 7.125 -7.609375 L 7.125 0.03125 L 6.59375 0.03125 Z M 1.703125 -5.703125 "/></g></g></g><g fill="#ff4c4c" fill-opacity="1"><g transform="translate(122.450045, 94.23487)"><g><path d="M 4.5625 0.234375 C 3.769531 0.234375 3.054688 0.0507812 2.421875 -0.3125 C 1.785156 -0.675781 1.289062 -1.175781 0.9375 -1.8125 C 0.582031 -2.445312 0.40625 -3.148438 0.40625 -3.921875 C 0.40625 -4.660156 0.5625 -5.328125 0.875 -5.921875 C 1.1875 -6.515625 1.632812 -6.984375 2.21875 -7.328125 C 2.800781 -7.671875 3.460938 -7.84375 4.203125 -7.84375 C 4.878906 -7.84375 5.457031 -7.753906 5.9375 -7.578125 C 6.414062 -7.398438 6.769531 -7.175781 7 -6.90625 C 7.132812 -6.738281 7.21875 -6.523438 7.25 -6.265625 C 7.28125 -6.003906 7.296875 -5.679688 7.296875 -5.296875 L 6.953125 -5.296875 C 6.804688 -6.003906 6.535156 -6.519531 6.140625 -6.84375 C 5.753906 -7.164062 5.226562 -7.328125 4.5625 -7.328125 C 3.695312 -7.328125 3.054688 -7.003906 2.640625 -6.359375 C 2.222656 -5.710938 2.015625 -4.898438 2.015625 -3.921875 C 2.015625 -2.609375 2.242188 -1.664062 2.703125 -1.09375 C 3.160156 -0.519531 3.78125 -0.234375 4.5625 -0.234375 C 5.15625 -0.234375 5.671875 -0.332031 6.109375 -0.53125 L 6.109375 -2.578125 C 6.109375 -2.984375 6.257812 -3.316406 6.5625 -3.578125 C 6.875 -3.847656 7.46875 -3.984375 8.34375 -3.984375 L 8.34375 -3.703125 C 7.851562 -3.703125 7.609375 -3.335938 7.609375 -2.609375 L 7.609375 -0.546875 C 7.171875 -0.273438 6.703125 -0.078125 6.203125 0.046875 C 5.703125 0.171875 5.15625 0.234375 4.5625 0.234375 Z M 4.5625 0.234375 "/></g></g></g></svg>